<?xml version="1.0" standalone="no"?>
<!DOCTYPE svg PUBLIC "-//W3C//DTD SVG 20010904//EN"
 "http://www.w3.org/TR/2001/REC-SVG-20010904/DTD/svg10.dtd">
<svg version="1.0" xmlns="http://www.w3.org/2000/svg"
 width="1080.000000pt" height="1080.000000pt" viewBox="0 0 1080.000000 1080.000000"
 preserveAspectRatio="xMidYMid meet">
<metadata>
Created by potrace 1.15, written by Peter Selinger 2001-2017
</metadata>
<g transform="translate(0.000000,1080.000000) scale(0.100000,-0.100000)"
fill="#000000" stroke="none">
<path d="M5400 9960 l0 -170 -170 0 -170 0 0 -675 0 -675 -170 0 -170 0 0
-505 0 -505 -165 0 -165 0 0 -675 0 -675 -170 0 -170 0 0 -675 0 -675 170 0
170 0 0 -170 0 -170 165 0 165 0 0 -170 0 -170 170 0 170 0 0 -845 0 -845
-170 0 -170 0 0 170 0 170 -165 0 -165 0 0 170 0 170 -170 0 -170 0 0 335 0
335 -170 0 -170 0 0 170 0 170 -170 0 -170 0 0 170 0 170 -165 0 -165 0 0 170
0 170 -845 0 -845 0 0 -170 0 -170 -170 0 -170 0 0 -170 0 -170 340 0 340 0 0
-170 0 -170 165 0 165 0 0 -165 0 -165 170 0 170 0 0 -170 0 -170 170 0 170 0
0 -340 0 -340 170 0 170 0 0 -335 0 -335 165 0 165 0 0 -170 0 -170 170 0 170
0 0 -170 0 -170 1180 0 1180 0 0 170 0 170 170 0 170 0 0 170 0 170 170 0 170
0 0 170 0 170 335 0 335 0 0 165 0 165 845 0 845 0 0 170 0 170 170 0 170 0 0
340 0 340 -1015 0 -1015 0 0 165 0 165 170 0 170 0 0 170 0 170 340 0 340 0 0
170 0 170 335 0 335 0 0 170 0 170 170 0 170 0 0 165 0 165 170 0 170 0 0 510
0 510 -510 0 -510 0 0 -170 0 -170 -165 0 -165 0 0 -170 0 -170 -170 0 -170 0
0 -170 0 -170 -340 0 -340 0 0 -165 0 -165 -335 0 -335 0 0 -170 0 -170 -170
0 -170 0 0 335 0 335 170 0 170 0 0 170 0 170 170 0 170 0 0 170 0 170 165 0
165 0 0 170 0 170 170 0 170 0 0 165 0 165 170 0 170 0 0 170 0 170 170 0 170
0 0 170 0 170 165 0 165 0 0 675 0 675 -505 0 -505 0 0 -170 0 -170 -170 0
-170 0 0 -170 0 -170 -165 0 -165 0 0 -165 0 -165 -170 0 -170 0 0 -340 0
-340 -170 0 -170 0 0 -170 0 -170 -170 0 -170 0 0 -165 0 -165 -165 0 -165 0
0 -170 0 -170 -170 0 -170 0 0 335 0 335 170 0 170 0 0 510 0 510 165 0 165 0
0 1180 0 1180 -165 0 -165 0 0 170 0 170 -170 0 -170 0 0 -170z"/>
</g>
</svg>
